<svg xmlns="http://www.w3.org/2000/svg" width="53.733" height="51.494" viewBox="0 0 53.733 51.494">
  <path id="excavador" d="M53.733,3.239V30.105a6.725,6.725,0,0,1-6.717,6.717H38.061V30.3L49.255,19.1V9.586L35.822,22.242v3.385a4.477,4.477,0,0,1-4.478,4.478H4.482A4.475,4.475,0,0,1,0,25.634L0,21.15H30.453L49.493,3.239ZM23.866,4.954A6.7,6.7,0,0,0,17.734,1h-6.54V16.672H29.105L23.866,4.954ZM35.822,43.539a8.967,8.967,0,0,1-8.956,8.956H8.956a8.956,8.956,0,0,1,0-17.911H26.867A8.966,8.966,0,0,1,35.822,43.539Zm-22.389,0A3.358,3.358,0,1,0,10.075,46.9,3.36,3.36,0,0,0,13.433,43.539Zm15.672,0A3.358,3.358,0,1,0,25.747,46.9,3.36,3.36,0,0,0,29.105,43.539Z" transform="translate(0 -1)" fill="#fff"/>
</svg>
