<svg xmlns="http://www.w3.org/2000/svg" width="44.235" height="44.314" viewBox="0 0 44.235 44.314">
  <path id="garantia" d="M31.057,42.826a1.908,1.908,0,0,1-1.829,2.483H10.169a3.939,3.939,0,0,1-3.227-1.7c-4-5.736-5.923-13.694-5.923-21.464A42.713,42.713,0,0,1,2.725,10.436,4.668,4.668,0,0,1,9,7.4a4.838,4.838,0,0,1,2.653,5.754,27.74,27.74,0,0,0-1.1,8.908A7.479,7.479,0,0,0,9.24,28.108a23.323,23.323,0,0,0,3,5.871,20.4,20.4,0,0,0,1.9,2.649,2.013,2.013,0,0,0,3.051-2.62,28.789,28.789,0,0,1-4.008-6.723,3.414,3.414,0,0,1,.987-3.255,3.223,3.223,0,0,1,3.8-.451,19.417,19.417,0,0,1,5.877,4.951c3,3.607,5.662,9.555,7.21,14.3ZM28.3,23.576A15.073,15.073,0,0,0,26.1,25c.28.306.562.612.844.953a34.532,34.532,0,0,1,3.762,5.75,24.761,24.761,0,0,0,2.379-4.419,3.414,3.414,0,0,0-.987-3.255,3.223,3.223,0,0,0-3.8-.451Zm15.243-13.14A4.668,4.668,0,0,0,37.264,7.4a4.838,4.838,0,0,0-2.653,5.754,27.74,27.74,0,0,1,1.1,8.908,7.479,7.479,0,0,1,1.321,6.042,23.323,23.323,0,0,1-3,5.871,22.048,22.048,0,0,1-1.313,1.9c1.1,2.524,1.837,4.671,2.173,5.706a5.9,5.9,0,0,1-.058,3.732H36.1a3.939,3.939,0,0,0,3.227-1.7c4-5.736,5.923-13.694,5.923-21.464A42.713,42.713,0,0,0,43.548,10.44ZM20.91,14.629a3.017,3.017,0,0,0,3.17.038,27.078,27.078,0,0,0,8.608-9.021A3.02,3.02,0,1,0,27.6,2.394a23.87,23.87,0,0,1-5.047,5.994,11.922,11.922,0,0,1-2.068-2.145,3.023,3.023,0,0,0-4.848,3.611,19.345,19.345,0,0,0,5.273,4.775Z" transform="translate(-1.019 -1)" fill="#fff"/>
</svg>
