<svg xmlns="http://www.w3.org/2000/svg" width="47.121" height="47.318" viewBox="0 0 47.121 47.318">
  <path id="hojas-biologicas" d="M10.8,11.811H7.555L9.063,8.931c.189-.364,4.8-8.941,15.164-8.941a9.242,9.242,0,0,1,9.124,8.642,22.15,22.15,0,0,0-9.763-1.739v3.934c3.326,0,6.408.21,9.171,1.957a9.2,9.2,0,0,1-8.53,5.91c-3.294,0-5.779-2.071-7.972-3.9-1.843-1.536-3.584-2.986-5.452-2.986Zm21.956.974A13.718,13.718,0,0,1,37.1,17.418l3.357-2.047a16.728,16.728,0,0,0-7.11-6.736c.018.238.071.466.071.71a9.437,9.437,0,0,1-.663,3.442Zm11.158,9.75-1.766-2.7-1.589,2.809c-1.021,1.8-3.039,2.938-5.175,4.14-2.4,1.349-5.11,2.877-6.669,5.633A9.032,9.032,0,0,0,29.2,42.2a11.088,11.088,0,0,0,6.471-6.949l3.764,1.137a15.125,15.125,0,0,1-7.09,8.682,9.418,9.418,0,0,0,12.7-3.578c5.173-9.14-.873-18.559-1.135-18.954ZM29.205,42.2a14.4,14.4,0,0,1-5.617,1.084v3.934a17.694,17.694,0,0,0,8.762-2.148l-.024-.012A9.248,9.248,0,0,1,29.207,42.2Zm-11.518-.858a20.087,20.087,0,0,1,.476-3.89c.474-2.547,1.013-5.434-.3-8.322a9.324,9.324,0,0,0-5.291-4.939,9.2,9.2,0,0,0-3.918-.525,9.083,9.083,0,0,0-.625,3.068c0,.077.057,2.2,3.18,5.326L8.43,34.838C3.995,30.4,4.077,26.983,4.1,26.607a10.427,10.427,0,0,1,.1-1.377A9.516,9.516,0,0,0,.862,37.025C5.291,46.782,16.189,47.2,16.649,47.215l3.283.092-1.467-2.938a6.866,6.866,0,0,1-.777-3.029ZM8.656,23.663a19.277,19.277,0,0,1,2.738-4.844L8.251,16.454A19.986,19.986,0,0,0,4.2,25.228a9.252,9.252,0,0,1,1.245-.743A9.243,9.243,0,0,1,8.656,23.663Z" transform="translate(-0.014 0.01)" fill="#fff"/>
</svg>
