<svg xmlns="http://www.w3.org/2000/svg" width="120.982" height="120.982" viewBox="0 0 120.982 120.982">
  <path id="Icon_fa-solid-phone" data-name="Icon fa-solid-phone" d="M38.963,5.816A9.422,9.422,0,0,0,27.763.335L6.97,6.005A9.479,9.479,0,0,0,0,15.126,105.862,105.862,0,0,0,105.855,120.981a9.479,9.479,0,0,0,9.121-6.97l5.671-20.793a9.422,9.422,0,0,0-5.482-11.2L92.481,72.566a9.421,9.421,0,0,0-10.94,2.741L72,86.956A79.857,79.857,0,0,1,34.025,48.985l11.649-9.522a9.43,9.43,0,0,0,2.741-10.94L38.963,5.84Z" transform="translate(0 0.001)" fill="#9c4629"/>
</svg>
