<svg xmlns="http://www.w3.org/2000/svg" xmlns:xlink="http://www.w3.org/1999/xlink" width="203.001" height="64.727" viewBox="0 0 203.001 64.727">
  <defs>
    <clipPath id="clip-path">
      <rect id="Rectángulo_2" data-name="Rectángulo 2" width="203.001" height="64.727" fill="none"/>
    </clipPath>
  </defs>
  <g id="Grupo_3" data-name="Grupo 3" transform="translate(0)">
    <path id="Trazado_1" data-name="Trazado 1" d="M109.365,35.774l-23.146-23.3L80.926,40.465Z" transform="translate(-16.185 -2.495)" fill="#d38557"/>
    <path id="Trazado_2" data-name="Trazado 2" d="M62.12,43.035,82.695,12.477,77.1,40.918Z" transform="translate(-12.424 -2.495)" fill="#924523"/>
    <path id="Trazado_3" data-name="Trazado 3" d="M159.45,13.611,136.909,39.026l30.257,3.328Z" transform="translate(-27.381 -2.722)" fill="#b36435"/>
    <path id="Trazado_4" data-name="Trazado 4" d="M185.81,44.472l-20.725-30.86L172.8,42.657Z" transform="translate(-33.016 -2.722)" fill="#7b2f0f"/>
    <path id="Trazado_5" data-name="Trazado 5" d="M118.37,0,98.1,32.4l-1.883,3.014L128.992,33.9Z" transform="translate(-19.243)" fill="#b16239"/>
    <path id="Trazado_6" data-name="Trazado 6" d="M134.529,33.9l16.2,1.508L123.907,0Z" transform="translate(-24.781 0)" fill="#80310e"/>
    <path id="Trazado_7" data-name="Trazado 7" d="M1.637,65.05,0,66.724v9.322l1.655,1.691H6.264l1.672-1.654V69.836H3.8v2.78h.862v2.375H3.29v-7.23H4.663v1.706l3.273-.476v-2.3L6.317,65.05Z" transform="translate(0 -13.01)" fill="#4b3c2f"/>
    <path id="Trazado_8" data-name="Trazado 8" d="M14.5,67.707h1.3v2.217H14.5ZM11.195,65.05V77.737H14.5v-5.1h1.3v5.1H19.1V72.581l-1.338-1.32L19.1,69.867V66.726L17.427,65.05Z" transform="translate(-2.239 -13.01)" fill="#4b3c2f"/>
    <path id="Trazado_9" data-name="Trazado 9" d="M25.993,69.438l.123-1.078.035-.458.035-.442.035.442.035.458.123,1.078.528,3.337H25.465Zm-2.3-4.388L21.576,77.737h3.555l.228-2.077h1.654l.228,2.077H30.8L28.685,65.05Z" transform="translate(-4.315 -13.01)" fill="#4b3c2f"/>
    <path id="Trazado_10" data-name="Trazado 10" d="M38.2,65.05l-.848,6.734v.088l-.106,1.622-.07.81-.053.811-.053-.811-.053-.81L36.9,71.872v-.088l-.829-6.734H32.64L35,77.737h4.276l2.34-12.687Z" transform="translate(-6.528 -13.01)" fill="#4b3c2f"/>
    <path id="Trazado_11" data-name="Trazado 11" d="M47.812,69.438l.123-1.078.035-.458.035-.442.035.442.035.458.123,1.078.528,3.337H47.284Zm-2.3-4.388L43.4,77.737H46.95l.228-2.077h1.654l.228,2.077h3.555L50.5,65.05Z" transform="translate(-8.679 -13.01)" fill="#4b3c2f"/>
    <path id="Trazado_12" data-name="Trazado 12" d="M57.041,65.05,55.4,66.742v4.071l4.558,2.539v1.6H58.729V72.933l-3.326.51v2.57l1.711,1.725h4.514l1.658-1.674V71.5l-4.558-2.539v-1.2h1.232v1.513l3.326-.511v-2.11l-1.636-1.6Z" transform="translate(-11.08 -13.01)" fill="#4b3c2f"/>
    <path id="Trazado_13" data-name="Trazado 13" d="M77.1,65.05l-.634,3.29-.018.1-.1.95-.07.528-.054.546v-.422l-.07-.652-.142-1.055-.639-3.29H71.79l2.8,8.334v4.353h3.273V73.384l2.8-8.334Z" transform="translate(-14.358 -13.01)" fill="#4b3c2f"/>
    <path id="Trazado_14" data-name="Trazado 14" d="M93.033,69.438l.123-1.078.035-.458.035-.442.035.442.035.458.123,1.078.527,3.337H92.5ZM90.727,65.05,88.616,77.737H92.17L92.4,75.66h1.654l.229,2.077h3.554L95.725,65.05Z" transform="translate(-17.723 -13.01)" fill="#4b3c2f"/>
    <path id="Trazado_15" data-name="Trazado 15" d="M103.933,67.707h1.3v2.217h-1.3Zm-3.309-2.657V77.737h3.309v-5.1h1.3v5.1h3.29V72.581l-1.338-1.32,1.338-1.394V66.726l-1.668-1.676Z" transform="translate(-20.124 -13.01)" fill="#4b3c2f"/>
    <path id="Trazado_16" data-name="Trazado 16" d="M111.8,65.05V77.737h6.81V74.569h-3.5V72.81h3.238V69.765h-3.238V68.094h3.537V65.05Z" transform="translate(-22.359 -13.01)" fill="#4b3c2f"/>
    <path id="Trazado_17" data-name="Trazado 17" d="M127.793,65.05v5.4l.158,1.354.07.634.07.634-.246-.81-.106-.4-.37-1.319-2.111-5.49h-3.783V77.737h2.974V72.353l-.158-1.425L124.2,70.1l-.088-.634.194.722.194.7.387,1.371L127,77.737h3.712V65.05Z" transform="translate(-24.294 -13.01)" fill="#4b3c2f"/>
    <path id="Trazado_18" data-name="Trazado 18" d="M137.923,69.438l.123-1.078.035-.458.035-.442.036.442.034.458.123,1.078.528,3.337H137.4Zm-2.3-4.388-2.111,12.687h3.554l.229-2.077h1.654l.229,2.077h3.554L140.615,65.05Z" transform="translate(-26.7 -13.01)" fill="#4b3c2f"/>
    <path id="Trazado_19" data-name="Trazado 19" d="M147.152,65.05l-1.638,1.692v4.071l4.558,2.539v1.6h-1.231V72.933l-3.326.51v2.57l1.711,1.725h4.515l1.657-1.674V71.5l-4.557-2.539v-1.2h1.231v1.513l3.326-.511v-2.11l-1.636-1.6Z" transform="translate(-29.102 -13.01)" fill="#4b3c2f"/>
    <path id="Trazado_20" data-name="Trazado 20" d="M166.348,67.83h1.25v7.09h-1.25Zm-3.326-2.78V77.737h6.159l1.723-1.691V66.706l-1.636-1.656Z" transform="translate(-32.603 -13.01)" fill="#4b3c2f"/>
    <path id="Trazado_21" data-name="Trazado 21" d="M174.152,65.05V77.737h6.81V74.569h-3.5V72.81H180.7V69.765H177.46V68.094H181V65.05Z" transform="translate(-34.829 -13.01)" fill="#4b3c2f"/>
    <path id="Trazado_22" data-name="Trazado 22" d="M183.829,65.05V77.737h6.176V74.569h-2.868V65.05Z" transform="translate(-36.765 -13.01)" fill="#4b3c2f"/>
    <path id="Trazado_23" data-name="Trazado 23" d="M200.259,65.05l-1.672,1.674v9.3l1.682,1.71h4.45l1.664-1.672V71.913l-3.29.458v2.55h-1.215V67.865h1.215v2.182l3.29-.44V66.722l-1.69-1.672Z" transform="translate(-39.716 -13.01)" fill="#4b3c2f"/>
    <path id="Trazado_24" data-name="Trazado 24" d="M213.276,69.438l.123-1.078.034-.458.036-.442.034.442.036.458.123,1.078.529,3.337h-1.445Zm-2.3-4.388-2.112,12.687h3.554l.23-2.077H214.3l.23,2.077h3.554L215.968,65.05Z" transform="translate(-41.77 -13.01)" fill="#4b3c2f"/>
    <path id="Trazado_25" data-name="Trazado 25" d="M225.426,65.05v9.87h-1.267V65.05h-3.29v11l1.653,1.691h4.542l1.653-1.691v-11Z" transform="translate(-44.172 -13.01)" fill="#4b3c2f"/>
    <path id="Trazado_26" data-name="Trazado 26" d="M233.626,65.05l-1.672,1.674v9.3l1.682,1.71h4.45l1.664-1.672V71.913l-3.29.458v2.55h-1.214V67.865h1.214v2.182l3.29-.44V66.722l-1.689-1.672Z" transform="translate(-46.389 -13.01)" fill="#4b3c2f"/>
    <path id="Trazado_27" data-name="Trazado 27" d="M246.641,69.438l.124-1.078.034-.458.035-.442.034.442.036.458.124,1.078.528,3.337h-1.444Zm-2.3-4.388-2.113,12.687h3.555l.23-2.077h1.653l.23,2.077h3.553l-2.11-12.687Z" transform="translate(-48.443 -13.01)" fill="#4b3c2f"/>
    <g id="Grupo_2" data-name="Grupo 2" transform="translate(0 0)">
      <g id="Grupo_1" data-name="Grupo 1" clip-path="url(#clip-path)">
        <path id="Trazado_28" data-name="Trazado 28" d="M177.135,54.2c-16.55-7.632-40.629-12.439-67.438-12.439S58.81,46.571,42.259,54.2A316.37,316.37,0,0,1,109.7,46.582,316.437,316.437,0,0,1,177.135,54.2" transform="translate(-8.451 -8.353)" fill="#64220e"/>
      </g>
    </g>
  </g>
</svg>
