<svg xmlns="http://www.w3.org/2000/svg" width="131.981" height="120.982" viewBox="0 0 131.981 120.982">
  <g id="sobre" transform="translate(0 -1)">
    <path id="Trazado_41" data-name="Trazado 41" d="M131.728,5.542,85.435,51.834a27.534,27.534,0,0,1-38.89,0L.253,5.542C.176,6.411,0,7.2,0,8.061v65.99a27.529,27.529,0,0,0,27.5,27.5h76.989a27.529,27.529,0,0,0,27.5-27.5V8.061C131.981,7.2,131.8,6.411,131.728,5.542Z" transform="translate(0 20.435)" fill="#9c4629"/>
    <path id="Trazado_42" data-name="Trazado 42" d="M74.312,64.494l50.23-50.235A27.419,27.419,0,0,0,101.137,1H24.149A27.419,27.419,0,0,0,.744,14.259l50.23,50.235a16.536,16.536,0,0,0,23.339,0Z" transform="translate(3.347)" fill="#9c4629"/>
  </g>
</svg>
