<svg xmlns="http://www.w3.org/2000/svg" width="34.982" height="46.643" viewBox="0 0 34.982 46.643">
  <path id="usuario-del-portapapeles" d="M37.982,3.887V40.813a5.838,5.838,0,0,1-5.83,5.83H8.83A5.838,5.838,0,0,1,3,40.813V3.887H13.05A5.842,5.842,0,0,1,18.548,0h3.887a5.842,5.842,0,0,1,5.5,3.887ZM15.632,20.406a4.859,4.859,0,1,0,4.859-4.859A4.863,4.863,0,0,0,15.632,20.406ZM30.208,33.039a5.837,5.837,0,0,0-5.83-5.83H16.6a5.837,5.837,0,0,0-5.83,5.83v3.887h3.887V33.039A1.947,1.947,0,0,1,16.6,31.1h7.774a1.947,1.947,0,0,1,1.943,1.943v3.887h3.887Z" transform="translate(-3)" fill="#fff"/>
</svg>
