<svg xmlns="http://www.w3.org/2000/svg" width="46.631" height="55.958" viewBox="0 0 46.631 55.958">
  <path id="verificacion-de-escudo" d="M40.659,4.99,26.052.119a2.332,2.332,0,0,0-1.474,0L9.972,4.99A11.641,11.641,0,0,0,2,16.048v11.93C2,45.612,23.45,55.351,24.369,55.757a2.332,2.332,0,0,0,1.893,0c.919-.406,22.369-10.144,22.369-27.778V16.048A11.641,11.641,0,0,0,40.659,4.99ZM36.315,22.656l-9.96,9.96a4.367,4.367,0,0,1-3.113,1.289h-.077a4.365,4.365,0,0,1-3.136-1.4l-5.377-5.6a2.332,2.332,0,1,1,3.36-3.222l5.232,5.456,9.764-9.792a2.331,2.331,0,1,1,3.3,3.3Z" transform="translate(-2 0)" fill="#fff"/>
</svg>
